<?xml version="1.0" encoding="UTF-8" standalone="no"?>
<!DOCTYPE svg PUBLIC "-//W3C//DTD SVG 1.1//EN"
 "http://www.w3.org/Graphics/SVG/1.1/DTD/svg11.dtd">
<!-- Generated by graphviz version 7.1.0 (20230121.1956)
 -->
<!-- Title: ivt&#45;mem Pages: 1 -->
<svg width="718pt" height="807pt"
 viewBox="0.00 0.00 718.00 807.00" xmlns="http://www.w3.org/2000/svg" xmlns:xlink="http://www.w3.org/1999/xlink">
<g id="graph0" class="graph" transform="scale(1 1) rotate(0) translate(4 803)">
<title>ivt&#45;mem</title>
<polygon fill="black" stroke="none" points="-4,4 -4,-803 714,-803 714,4 -4,4"/>
<text text-anchor="middle" x="355" y="-13" font-family="Fixedsys" font-size="30.00" fill="white">Interrupt Vector Table and Interrupt Service Routines</text>
<!-- IVT -->
<g id="node1" class="node">
<title>IVT</title>
<defs>
<linearGradient id="node1_l_0" gradientUnits="userSpaceOnUse" x1="212.5" y1="-398.5" x2="312.5" y2="-398.5" >
<stop offset="0" style="stop-color:green;stop-opacity:1.;"/>
<stop offset="1" style="stop-color:pink;stop-opacity:1.;"/>
</linearGradient>
</defs>
<polygon fill="url(#node1_l_0)" stroke="black" points="212.5,-41.5 212.5,-755.5 312.5,-755.5 312.5,-41.5 212.5,-41.5"/>
<text text-anchor="middle" x="262.5" y="-732.3" font-family="Fixedsys" font-size="24.00">IVT[00]</text>
<polyline fill="none" stroke="black" points="212.5,-721.5 312.5,-721.5"/>
<text text-anchor="middle" x="262.5" y="-698.3" font-family="Fixedsys" font-size="24.00">IVT[01]</text>
<polyline fill="none" stroke="black" points="212.5,-687.5 312.5,-687.5"/>
<text text-anchor="middle" x="262.5" y="-664.3" font-family="Fixedsys" font-size="24.00">IVT[02]</text>
<polyline fill="none" stroke="black" points="212.5,-653.5 312.5,-653.5"/>
<text text-anchor="middle" x="262.5" y="-630.3" font-family="Fixedsys" font-size="24.00">IVT[03]</text>
<polyline fill="none" stroke="black" points="212.5,-619.5 312.5,-619.5"/>
<text text-anchor="middle" x="262.5" y="-596.3" font-family="Fixedsys" font-size="24.00">IVT[04]</text>
<polyline fill="none" stroke="black" points="212.5,-585.5 312.5,-585.5"/>
<text text-anchor="middle" x="262.5" y="-562.3" font-family="Fixedsys" font-size="24.00">IVT[05]</text>
<polyline fill="none" stroke="black" points="212.5,-551.5 312.5,-551.5"/>
<text text-anchor="middle" x="262.5" y="-528.3" font-family="Fixedsys" font-size="24.00">IVT[06]</text>
<polyline fill="none" stroke="black" points="212.5,-517.5 312.5,-517.5"/>
<text text-anchor="middle" x="262.5" y="-494.3" font-family="Fixedsys" font-size="24.00">IVT[07]</text>
<polyline fill="none" stroke="black" points="212.5,-483.5 312.5,-483.5"/>
<text text-anchor="middle" x="262.5" y="-460.3" font-family="Fixedsys" font-size="24.00">IVT[08]</text>
<polyline fill="none" stroke="black" points="212.5,-449.5 312.5,-449.5"/>
<text text-anchor="middle" x="262.5" y="-426.3" font-family="Fixedsys" font-size="24.00">IVT[09]</text>
<polyline fill="none" stroke="black" points="212.5,-415.5 312.5,-415.5"/>
<text text-anchor="middle" x="262.5" y="-392.3" font-family="Fixedsys" font-size="24.00">IVT[0A]</text>
<polyline fill="none" stroke="black" points="212.5,-381.5 312.5,-381.5"/>
<text text-anchor="middle" x="262.5" y="-358.3" font-family="Fixedsys" font-size="24.00">IVT[0B]</text>
<polyline fill="none" stroke="black" points="212.5,-347.5 312.5,-347.5"/>
<text text-anchor="middle" x="262.5" y="-324.3" font-family="Fixedsys" font-size="24.00">...</text>
<polyline fill="none" stroke="black" points="212.5,-313.5 312.5,-313.5"/>
<text text-anchor="middle" x="262.5" y="-290.3" font-family="Fixedsys" font-size="24.00">IVT[21]</text>
<polyline fill="none" stroke="black" points="212.5,-279.5 312.5,-279.5"/>
<text text-anchor="middle" x="262.5" y="-256.3" font-family="Fixedsys" font-size="24.00">IVT[22]</text>
<polyline fill="none" stroke="black" points="212.5,-245.5 312.5,-245.5"/>
<text text-anchor="middle" x="262.5" y="-222.3" font-family="Fixedsys" font-size="24.00">IVT[23]</text>
<polyline fill="none" stroke="black" points="212.5,-211.5 312.5,-211.5"/>
<text text-anchor="middle" x="262.5" y="-188.3" font-family="Fixedsys" font-size="24.00">IVT[24]</text>
<polyline fill="none" stroke="black" points="212.5,-177.5 312.5,-177.5"/>
<text text-anchor="middle" x="262.5" y="-154.3" font-family="Fixedsys" font-size="24.00">...</text>
<polyline fill="none" stroke="black" points="212.5,-143.5 312.5,-143.5"/>
<text text-anchor="middle" x="262.5" y="-120.3" font-family="Fixedsys" font-size="24.00">IVT[FD]</text>
<polyline fill="none" stroke="black" points="212.5,-109.5 312.5,-109.5"/>
<text text-anchor="middle" x="262.5" y="-86.3" font-family="Fixedsys" font-size="24.00">IVT[FE]</text>
<polyline fill="none" stroke="black" points="212.5,-75.5 312.5,-75.5"/>
<text text-anchor="middle" x="262.5" y="-52.3" font-family="Fixedsys" font-size="24.00">IVT[FF]</text>
</g>
<!-- ISR&#45;00 -->
<g id="node2" class="node">
<title>ISR&#45;00</title>
<defs>
<linearGradient id="node2_l_1" gradientUnits="userSpaceOnUse" x1="348.5" y1="-780.5" x2="497.5" y2="-780.5" >
<stop offset="0" style="stop-color:lightblue;stop-opacity:1.;"/>
<stop offset="1" style="stop-color:violet;stop-opacity:1.;"/>
</linearGradient>
</defs>
<polygon fill="url(#node2_l_1)" stroke="black" points="348.5,-762.5 348.5,-798.5 497.5,-798.5 497.5,-762.5 348.5,-762.5"/>
<text text-anchor="middle" x="423" y="-774.3" font-family="Fixedsys" font-size="24.00">ISR [INT 00]</text>
</g>
<!-- IVT&#45;&gt;ISR&#45;00 -->
<g id="edge1" class="edge">
<title>IVT:f0&#45;&gt;ISR&#45;00</title>
<path fill="none" stroke="pink" d="M312.5,-738.5C329.83,-738.5 332.36,-747.18 348.5,-753.5 352.84,-755.2 357.34,-756.93 361.88,-758.65"/>
<polygon fill="pink" stroke="pink" points="360.46,-761.86 371.05,-762.1 362.92,-755.31 360.46,-761.86"/>
</g>
<!-- ISR&#45;01 -->
<g id="node3" class="node">
<title>ISR&#45;01</title>
<defs>
<linearGradient id="node3_l_2" gradientUnits="userSpaceOnUse" x1="348.5" y1="-725.5" x2="497.5" y2="-725.5" >
<stop offset="0" style="stop-color:lightblue;stop-opacity:1.;"/>
<stop offset="1" style="stop-color:violet;stop-opacity:1.;"/>
</linearGradient>
</defs>
<polygon fill="url(#node3_l_2)" stroke="black" points="348.5,-707.5 348.5,-743.5 497.5,-743.5 497.5,-707.5 348.5,-707.5"/>
<text text-anchor="middle" x="423" y="-719.3" font-family="Fixedsys" font-size="24.00">ISR [INT 01]</text>
</g>
<!-- IVT&#45;&gt;ISR&#45;01 -->
<g id="edge2" class="edge">
<title>IVT:f1&#45;&gt;ISR&#45;01</title>
<path fill="none" stroke="pink" d="M312.5,-704.5C320.62,-704.5 329.01,-705.06 337.38,-706.01"/>
<polygon fill="pink" stroke="pink" points="336.87,-709.47 347.24,-707.31 337.79,-702.53 336.87,-709.47"/>
</g>
<!-- ISR&#45;02 -->
<g id="node4" class="node">
<title>ISR&#45;02</title>
<defs>
<linearGradient id="node4_l_3" gradientUnits="userSpaceOnUse" x1="348.5" y1="-670.5" x2="497.5" y2="-670.5" >
<stop offset="0" style="stop-color:lightblue;stop-opacity:1.;"/>
<stop offset="1" style="stop-color:violet;stop-opacity:1.;"/>
</linearGradient>
</defs>
<polygon fill="url(#node4_l_3)" stroke="black" points="348.5,-652.5 348.5,-688.5 497.5,-688.5 497.5,-652.5 348.5,-652.5"/>
<text text-anchor="middle" x="423" y="-664.3" font-family="Fixedsys" font-size="24.00">ISR [INT 02]</text>
</g>
<!-- IVT&#45;&gt;ISR&#45;02 -->
<g id="edge3" class="edge">
<title>IVT:f2&#45;&gt;ISR&#45;02</title>
<path fill="none" stroke="pink" d="M312.5,-670.5C320.54,-670.5 328.91,-670.5 337.28,-670.5"/>
<polygon fill="pink" stroke="pink" points="337.16,-674 347.16,-670.5 337.16,-667 337.16,-674"/>
</g>
<!-- ISR&#45;03 -->
<g id="node5" class="node">
<title>ISR&#45;03</title>
<defs>
<linearGradient id="node5_l_4" gradientUnits="userSpaceOnUse" x1="348.5" y1="-615.5" x2="497.5" y2="-615.5" >
<stop offset="0" style="stop-color:lightblue;stop-opacity:1.;"/>
<stop offset="1" style="stop-color:violet;stop-opacity:1.;"/>
</linearGradient>
</defs>
<polygon fill="url(#node5_l_4)" stroke="black" points="348.5,-597.5 348.5,-633.5 497.5,-633.5 497.5,-597.5 348.5,-597.5"/>
<text text-anchor="middle" x="423" y="-609.3" font-family="Fixedsys" font-size="24.00">ISR [INT 03]</text>
</g>
<!-- IVT&#45;&gt;ISR&#45;03 -->
<g id="edge4" class="edge">
<title>IVT:f3&#45;&gt;ISR&#45;03</title>
<path fill="none" stroke="pink" d="M312.5,-636.5C320.62,-636.5 329.01,-635.94 337.38,-634.99"/>
<polygon fill="pink" stroke="pink" points="337.79,-638.47 347.24,-633.69 336.87,-631.53 337.79,-638.47"/>
</g>
<!-- ISR&#45;04 -->
<g id="node6" class="node">
<title>ISR&#45;04</title>
<defs>
<linearGradient id="node6_l_5" gradientUnits="userSpaceOnUse" x1="348.5" y1="-560.5" x2="497.5" y2="-560.5" >
<stop offset="0" style="stop-color:lightblue;stop-opacity:1.;"/>
<stop offset="1" style="stop-color:violet;stop-opacity:1.;"/>
</linearGradient>
</defs>
<polygon fill="url(#node6_l_5)" stroke="black" points="348.5,-542.5 348.5,-578.5 497.5,-578.5 497.5,-542.5 348.5,-542.5"/>
<text text-anchor="middle" x="423" y="-554.3" font-family="Fixedsys" font-size="24.00">ISR [INT 04]</text>
</g>
<!-- IVT&#45;&gt;ISR&#45;04 -->
<g id="edge5" class="edge">
<title>IVT:f4&#45;&gt;ISR&#45;04</title>
<path fill="none" stroke="pink" d="M312.5,-602.5C329.67,-602.5 332.48,-594.67 348.5,-588.5 353.7,-586.5 359.12,-584.42 364.54,-582.35"/>
<polygon fill="pink" stroke="pink" points="365.42,-585.76 373.52,-578.92 362.93,-579.22 365.42,-585.76"/>
</g>
</g>
</svg>
